<svg width="24" height="24" viewBox="0 0 24 24" fill="none" xmlns="http://www.w3.org/2000/svg">
<path d="M3.96932 14.4694L11.4693 6.96945C11.539 6.89971 11.6217 6.84439 11.7127 6.80665C11.8038 6.76891 11.9014 6.74948 12 6.74948C12.0985 6.74948 12.1961 6.76891 12.2872 6.80665C12.3782 6.84439 12.4609 6.89971 12.5306 6.96945L20.0306 14.4694C20.1713 14.6102 20.2504 14.801 20.2504 15.0001C20.2504 15.1991 20.1713 15.39 20.0306 15.5307C19.8898 15.6714 19.699 15.7505 19.4999 15.7505C19.3009 15.7505 19.1101 15.6714 18.9693 15.5307L11.9999 8.56038L5.03057 15.5307C4.96089 15.6004 4.87817 15.6557 4.78712 15.6934C4.69608 15.7311 4.59849 15.7505 4.49995 15.7505C4.4014 15.7505 4.30382 15.7311 4.21278 15.6934C4.12173 15.6557 4.03901 15.6004 3.96932 15.5307C3.89964 15.461 3.84437 15.3783 3.80665 15.2872C3.76894 15.1962 3.74953 15.0986 3.74953 15.0001C3.74953 14.9015 3.76894 14.8039 3.80665 14.7129C3.84437 14.6219 3.89964 14.5391 3.96932 14.4694Z" fill="#443FE1"/>
</svg>
