<svg width="24" height="24" viewBox="0 0 24 24" fill="none" xmlns="http://www.w3.org/2000/svg">
<path d="M22.245 9.17487C22.1647 8.92074 22.0098 8.69664 21.8005 8.53164C21.5912 8.36663 21.3371 8.26836 21.0713 8.24955L15.4228 7.79299L13.246 2.52424C13.1444 2.27728 12.9717 2.06607 12.7499 1.91744C12.5281 1.76881 12.2671 1.68945 12 1.68945C11.733 1.68945 11.472 1.76881 11.2502 1.91744C11.0283 2.06607 10.8557 2.27728 10.7541 2.52424L8.57722 7.79112L2.92878 8.24955C2.66269 8.26849 2.40846 8.36705 2.19913 8.5324C1.9898 8.69776 1.83506 8.92227 1.75503 9.17674C1.6716 9.43054 1.66519 9.70335 1.7366 9.96078C1.80801 10.2182 1.95404 10.4487 2.15628 10.6233L6.46878 14.3367L5.15628 19.8914C5.09469 20.1514 5.11161 20.4238 5.2049 20.6741C5.29819 20.9244 5.46365 21.1414 5.68034 21.2977C5.89435 21.4562 6.15127 21.5464 6.41742 21.5565C6.68358 21.5665 6.94656 21.4959 7.17191 21.3539L12 18.3858L16.8357 21.3586C17.061 21.5006 17.324 21.5712 17.5901 21.5612C17.8563 21.5511 18.1132 21.4609 18.3272 21.3024C18.5439 21.1461 18.7094 20.9291 18.8027 20.6788C18.8959 20.4284 18.9129 20.1561 18.8513 19.8961L17.5388 14.3414L21.8438 10.6233C22.0464 10.4486 22.1926 10.2178 22.2641 9.95994C22.3355 9.70212 22.3289 9.42892 22.245 9.17487ZM21.1069 9.77205L16.5422 13.7096C16.4643 13.7768 16.4064 13.864 16.3746 13.9619C16.3429 14.0597 16.3386 14.1644 16.3622 14.2646L17.7572 20.1511C17.7694 20.1955 17.7674 20.2427 17.7514 20.2859C17.7355 20.3291 17.7063 20.3663 17.6682 20.3921C17.6336 20.4188 17.5915 20.4341 17.5478 20.4358C17.5041 20.4374 17.461 20.4254 17.4244 20.4014L12.2944 17.2496C12.2058 17.1952 12.104 17.1664 12 17.1664C11.8961 17.1664 11.7942 17.1952 11.7057 17.2496L6.57566 20.4005C6.53911 20.4245 6.49598 20.4365 6.45228 20.4348C6.40858 20.4331 6.3665 20.4179 6.33191 20.3911C6.29288 20.366 6.26281 20.3291 6.24597 20.2858C6.22914 20.2426 6.2264 20.1951 6.23816 20.1502L7.63316 14.2636C7.65677 14.1635 7.65248 14.0588 7.62074 13.961C7.589 13.8631 7.53104 13.7758 7.45316 13.7086L2.88847 9.77112C2.85266 9.74195 2.82682 9.70236 2.81455 9.65783C2.80229 9.61331 2.8042 9.56607 2.82003 9.52268C2.83226 9.47991 2.85753 9.44202 2.89231 9.41429C2.9271 9.38656 2.96967 9.37037 3.01409 9.36799L9.00659 8.88424C9.10985 8.87585 9.20879 8.83912 9.29249 8.77807C9.3762 8.71703 9.44142 8.63406 9.48097 8.5383L11.79 2.9508C11.8061 2.90944 11.8343 2.87391 11.871 2.84885C11.9076 2.8238 11.951 2.81039 11.9953 2.81039C12.0397 2.81039 12.0831 2.8238 12.1197 2.84885C12.1563 2.87391 12.1846 2.90944 12.2007 2.9508L14.5097 8.5383C14.5493 8.63406 14.6145 8.71703 14.6982 8.77807C14.7819 8.83912 14.8808 8.87585 14.9841 8.88424L20.9766 9.36799C21.021 9.37037 21.0636 9.38656 21.0984 9.41429C21.1332 9.44202 21.1584 9.47991 21.1707 9.52268C21.1872 9.56572 21.19 9.61285 21.1786 9.65754C21.1671 9.70222 21.1421 9.74224 21.1069 9.77205Z" fill="white"/>
</svg>
