<svg width="24" height="24" viewBox="0 0 24 24" fill="none" xmlns="http://www.w3.org/2000/svg">
<path d="M22.5001 11.9894C22.5008 12.2567 22.4301 12.5192 22.2952 12.75C22.1604 12.9808 21.9664 13.1713 21.7332 13.3019L5.99074 22.3028C5.76483 22.4309 5.50978 22.4987 5.25011 22.4997C5.01085 22.4984 4.77537 22.4399 4.56333 22.3291C4.35128 22.2183 4.16883 22.0583 4.0312 21.8626C3.89356 21.6669 3.80475 21.4411 3.77216 21.2041C3.73957 20.967 3.76415 20.7256 3.84386 20.5L6.37511 13.0047C6.39985 12.9314 6.44664 12.8676 6.50907 12.822C6.57151 12.7763 6.64653 12.7511 6.72386 12.7497H13.5001C13.6029 12.75 13.7047 12.729 13.7991 12.6883C13.8935 12.6475 13.9785 12.5878 14.0488 12.5128C14.1191 12.4378 14.1733 12.3491 14.2079 12.2523C14.2426 12.1555 14.2569 12.0526 14.2501 11.95C14.2331 11.7572 14.1439 11.5779 14.0003 11.448C13.8567 11.3181 13.6693 11.2473 13.4757 11.2497H6.72573C6.64728 11.2497 6.5708 11.2251 6.50706 11.1794C6.44332 11.1336 6.39553 11.0691 6.37042 10.9947L3.83917 3.50035C3.73842 3.21309 3.72746 2.90198 3.80773 2.60835C3.88801 2.31471 4.05573 2.05245 4.2886 1.8564C4.52148 1.66035 4.8085 1.5398 5.11152 1.51075C5.41454 1.48171 5.71923 1.54555 5.98511 1.69379L21.7351 10.6835C21.9669 10.8138 22.16 11.0034 22.2944 11.2329C22.4288 11.4624 22.4998 11.7235 22.5001 11.9894Z" fill="white"/>
</svg>
