<svg width="24" height="24" viewBox="0 0 24 24" fill="none" xmlns="http://www.w3.org/2000/svg">
<path d="M19.5235 11.6028C19.5758 11.6551 19.6173 11.7171 19.6456 11.7854C19.6739 11.8537 19.6885 11.9269 19.6885 12.0008C19.6885 12.0747 19.6739 12.1479 19.6456 12.2162C19.6173 12.2845 19.5758 12.3465 19.5235 12.3988L11.8304 20.0863C10.8807 21.0356 9.59278 21.5687 8.24999 21.5685C6.9072 21.5682 5.61951 21.0345 4.6702 20.0849C3.72089 19.1352 3.18772 17.8473 3.18799 16.5045C3.18825 15.1617 3.72193 13.874 4.67161 12.9247L13.9782 3.4822C14.3089 3.15121 14.7015 2.88859 15.1337 2.70934C15.5659 2.53009 16.0291 2.43772 16.497 2.4375C16.9649 2.43728 17.4282 2.52922 17.8605 2.70807C18.2929 2.88692 18.6858 3.14917 19.0168 3.47986C19.3478 3.81054 19.6104 4.20318 19.7896 4.63536C19.9689 5.06754 20.0612 5.53079 20.0615 5.99867C20.0617 6.46654 19.9697 6.92988 19.7909 7.36223C19.612 7.79457 19.3498 8.18746 19.0191 8.51845L9.71161 17.9572C9.52023 18.1489 9.29295 18.3011 9.04276 18.405C8.79257 18.509 8.52436 18.5626 8.25344 18.5628C7.98253 18.5631 7.71421 18.51 7.46382 18.4066C7.21343 18.3031 6.98586 18.1514 6.79411 17.96C6.60236 17.7686 6.45018 17.5414 6.34626 17.2912C6.24235 17.041 6.18873 16.7728 6.18847 16.5018C6.18821 16.2309 6.24131 15.9626 6.34474 15.7122C6.44818 15.4618 6.59991 15.2343 6.7913 15.0425L14.5988 7.1047C14.6506 7.05201 14.7123 7.01004 14.7804 6.98119C14.8484 6.95234 14.9215 6.93718 14.9954 6.93657C15.0693 6.93596 15.1426 6.94992 15.2111 6.97764C15.2797 7.00536 15.342 7.04631 15.3947 7.09814C15.4474 7.14997 15.4894 7.21167 15.5182 7.27972C15.5471 7.34777 15.5622 7.42084 15.5629 7.49475C15.5635 7.56866 15.5495 7.64196 15.5218 7.71048C15.4941 7.779 15.4531 7.84138 15.4013 7.89407L7.5938 15.8356C7.50651 15.9225 7.43718 16.0257 7.38978 16.1393C7.34237 16.253 7.31782 16.3749 7.31751 16.498C7.31721 16.6211 7.34116 16.7431 7.388 16.857C7.43484 16.9709 7.50366 17.0744 7.59051 17.1617C7.67737 17.249 7.78057 17.3183 7.89422 17.3657C8.00787 17.4132 8.12974 17.4377 8.25288 17.438C8.37602 17.4383 8.49801 17.4144 8.6119 17.3675C8.72578 17.3207 8.82932 17.2519 8.91661 17.165L18.2204 7.72532C18.6779 7.26857 18.9352 6.64879 18.9357 6.00231C18.9362 5.35584 18.6799 4.73564 18.2232 4.27814C17.7664 3.82064 17.1466 3.56332 16.5002 3.56279C15.8537 3.56227 15.2335 3.81857 14.776 4.27532L5.46848 13.7141C4.72952 14.4522 4.31404 15.4536 4.31342 16.498C4.3128 17.5424 4.72711 18.5443 5.4652 19.2833C6.20329 20.0223 7.2047 20.4377 8.24913 20.4384C9.29356 20.439 10.2955 20.0247 11.0344 19.2866L18.7275 11.5991C18.78 11.547 18.8423 11.5058 18.9107 11.4778C18.9791 11.4498 19.0524 11.4356 19.1263 11.436C19.2002 11.4363 19.2733 11.4512 19.3415 11.4799C19.4096 11.5085 19.4715 11.5503 19.5235 11.6028Z" fill="#443FE1"/>
</svg>
